# xmcd CD database file
#
# Track frame offsets:
#	150
#	17912
#	42622
#	67692
#	87005
#	107501
#	143415
#	174881
#	191835
#	215990
#	244996
#	270581
#	300228
#
# Disc length: 4391 seconds
#
# Revision: 0
# Processed by: cddbd v1.5.1PL0 Copyright (c) Steve Scherf et al.
# Submitted via: CDex 1.51
#
DISCID=ab11250d
DTITLE=Various Artist - Kang and Music Jazz Sampler Vol 2
DYEAR=2005
DGENRE=Jazz
TTITLE0=Birdland
TTITLE1=The Things We Did Last Summer
TTITLE2=The Sweetest Sounds
TTITLE3=Calling You
TTITLE4=Gospello
TTITLE5=The Kingdom (Where Nobody Dies)
TTITLE6=Dixie/Strange Fruit
TTITLE7=With Every Breath I Take
TTITLE8=Moment's Notice
TTITLE9=Polka Dots And Moonbeams
TTITLE10=Can't Help Falling Love
TTITLE11=Little Girl
TTITLE12=Heather
EXTD=YEAR: 2005
EXTT0=
EXTT1=
EXTT2=
EXTT3=
EXTT4=
EXTT5=
EXTT6=
EXTT7=
EXTT8=
EXTT9=
EXTT10=
EXTT11=
EXTT12=
PLAYORDER=
